<svg height="200px" width="200px" version="1.1" id="Layer_1" xmlns="http://www.w3.org/2000/svg" xmlns:xlink="http://www.w3.org/1999/xlink" viewBox="0 0 512 512" xml:space="preserve" fill="#000000"><g id="SVGRepo_bgCarrier" stroke-width="0"></g><g id="SVGRepo_tracerCarrier" stroke-linecap="round" stroke-linejoin="round"></g><g id="SVGRepo_iconCarrier"> <path style="fill:#47CEAC;" d="M512,256.006C512,397.402,397.394,512.004,256.004,512C114.606,512.004,0,397.402,0,256.006 C-0.007,114.61,114.606,0,256.004,0C397.394,0,512,114.614,512,256.006z"></path> <g> <path style="fill:#36BB9A;" d="M472.788,392.112c-0.034-0.026-0.054-0.064-0.09-0.09c-0.426-0.577-210.507-210.659-211.084-211.084 c-1.292-1.754-3.27-2.965-5.615-2.965c-3.917,0-7.093,3.172-7.093,7.093v94.922l-81.2,40.599c-3.505,1.753-4.925,6.013-3.172,9.518 c0.649,1.296,1.654,2.267,2.822,2.937c0.487,0.524,0.88,1.139,1.486,1.487c0.489,0.524,164.396,164.654,165.003,165.002 c0.094,0.101,0.197,0.181,0.286,0.286C392.078,481.266,441.001,442.638,472.788,392.112z"></path> <path style="fill:#36BB9A;" d="M304.416,507.37c-0.068-0.054-0.114-0.133-0.185-0.185 c-0.427-0.572-155.515-155.668-156.083-156.083c-1.321-1.772-3.374-2.889-5.642-2.889H92.853c-3.917,0-7.093,3.172-7.093,7.093 c0,2.347,1.213,4.324,2.965,5.615c0.426,0.577,20.926,20.999,20.995,21.085l-22.205,25.378c-1.833,2.092-2.272,5.063-1.122,7.599 c0.515,1.137,79.034,79.644,79.601,80.059c0.306,0.411,0.69,0.735,1.067,1.067c27.706,10.264,57.663,15.892,88.942,15.891 C272.562,512.001,288.733,510.371,304.416,507.37z"></path> <path style="fill:#36BB9A;" d="M507.03,305.778c-0.196-0.271-0.295-0.586-0.535-0.833c-0.279-0.288-0.638-0.422-0.95-0.653 c-0.196-0.271-0.295-0.586-0.535-0.833c-0.279-0.288-215.303-215.296-215.543-215.543c-2.73-2.819-7.221-2.875-10.031-0.153 L256,110.493l-23.435-22.731c-2.813-2.722-7.297-2.668-10.031,0.153c-2.73,2.813-2.66,7.3,0.153,10.03l26.22,26.191V149.6 c0,2.346,1.213,4.323,2.965,5.615c0.426,0.577,0.91,1.061,1.486,1.487c0.425,0.577,223.887,224.037,224.463,224.462 c0.27,0.366,0.617,0.642,0.942,0.942c13.266-23.385,22.978-49.039,28.352-76.27C507.087,305.817,507.058,305.798,507.03,305.778z"></path> </g> <g> <path style="fill:#F4F6F9;" d="M344.292,320.589l-81.199-40.599v-94.923c0-3.921-3.177-7.093-7.093-7.093 c-3.917,0-7.093,3.172-7.093,7.093v94.922l-81.199,40.599c-3.505,1.753-4.925,6.013-3.172,9.518 c1.244,2.486,3.747,3.921,6.352,3.921c1.063,0,2.147-0.242,3.166-0.748L256,292.305l81.948,40.974 c1.019,0.506,2.102,0.748,3.166,0.748c2.605,0,5.108-1.434,6.352-3.921C349.218,326.602,347.797,322.341,344.292,320.589z"></path> <path style="fill:#F4F6F9;" d="M248.907,123.377v26.224c0,3.921,3.177,7.093,7.093,7.093c3.917,0,7.093-3.172,7.093-7.093v-26.226 l26.219-25.429c2.813-2.73,2.882-7.218,0.153-10.031c-2.73-2.819-7.221-2.875-10.031-0.153L256,110.493l-23.435-22.731 c-2.813-2.722-7.298-2.667-10.031,0.153c-2.73,2.813-2.66,7.301,0.153,10.031L248.907,123.377z"></path> <path style="fill:#F4F6F9;" d="M142.507,404.96h-34.022l39.36-44.985c1.833-2.092,2.272-5.063,1.122-7.599 c-1.15-2.535-3.675-4.163-6.46-4.163H92.853c-3.917,0-7.093,3.172-7.093,7.093c0,3.921,3.177,7.093,7.093,7.093h34.022 l-39.36,44.985c-1.833,2.092-2.272,5.063-1.122,7.599c1.15,2.535,3.675,4.163,6.46,4.163h49.653c3.917,0,7.093-3.172,7.093-7.093 C149.6,408.133,146.423,404.96,142.507,404.96z"></path> <path style="fill:#F4F6F9;" d="M403.743,390.773l20.741-23.704c2.58-2.944,2.283-7.426-0.665-10.01 c-2.95-2.577-7.429-2.272-10.01,0.672l-19.489,22.274l-19.489-22.274c-2.577-2.951-7.059-3.255-10.01-0.672 c-2.947,2.583-3.246,7.066-0.665,10.01l20.741,23.704l-20.741,23.705c-2.58,2.944-2.283,7.426,0.665,10.01 c1.347,1.178,3.013,1.753,4.669,1.753c1.974,0,3.938-0.817,5.341-2.425l19.489-22.274l19.489,22.274 c1.403,1.607,3.366,2.425,5.341,2.425c1.655,0,3.322-0.575,4.669-1.753c2.947-2.583,3.246-7.066,0.665-10.01L403.743,390.773z"></path> </g> </g></svg>